<svg width="33" height="24" viewBox="0 0 33 24" fill="none" xmlns="http://www.w3.org/2000/svg">
<path fill-rule="evenodd" clip-rule="evenodd" d="M28.9221 12.3516C29.0516 11.9186 29.1429 11.4716 29.1429 10.9996C29.1429 8.2386 26.7678 5.9996 23.8367 5.9996C23.5078 5.9996 23.1905 6.0376 22.8795 6.0906C21.3344 3.0806 18.0711 0.999603 14.2857 0.999603C9.01037 0.999603 4.7347 5.0296 4.7347 9.9996C4.7347 10.0846 4.74637 10.1666 4.74849 10.2506C2.81707 11.5146 1.55103 13.6166 1.55103 15.9996C1.55103 19.8666 4.8769 22.9996 8.9796 22.9996H14.2857H18.5306H24.898C28.4138 22.9996 31.2653 20.3136 31.2653 16.9996C31.2653 15.1246 30.3516 13.4516 28.9221 12.3516Z" stroke="white" stroke-width="2" stroke-linecap="round" stroke-linejoin="round"/>
<path d="M1.55103 16C1.55103 12.134 4.8769 9 8.9796 9" stroke="white" stroke-width="2" stroke-linecap="round" stroke-linejoin="round"/>
<path d="M14.2857 1C19.5611 1 23.8367 5.029 23.8367 10" stroke="white" stroke-width="2" stroke-linecap="round" stroke-linejoin="round"/>
<path d="M8.97957 19C7.22431 19 5.7959 17.654 5.7959 16" stroke="white" stroke-width="2" stroke-linecap="round" stroke-linejoin="round"/>
</svg>
