<svg width="10" height="10" viewBox="0 0 10 10" fill="none" xmlns="http://www.w3.org/2000/svg">
<g id="Left Chevron">
<path id="Vector" fill-rule="evenodd" clip-rule="evenodd" d="M6.62783 2.12199C6.70594 2.20013 6.74982 2.30609 6.74982 2.41658C6.74982 2.52706 6.70594 2.63302 6.62783 2.71116L4.00574 5.33324L6.62783 7.95533C6.70373 8.03391 6.74572 8.13916 6.74477 8.24841C6.74383 8.35766 6.70001 8.46217 6.62275 8.53942C6.5455 8.61667 6.44099 8.66049 6.33174 8.66144C6.2225 8.66239 6.11724 8.62039 6.03866 8.54449L3.12199 5.62783C3.04388 5.54969 3 5.44373 3 5.33324C3 5.22276 3.04388 5.1168 3.12199 5.03866L6.03866 2.12199C6.1168 2.04388 6.22276 2 6.33324 2C6.44373 2 6.54969 2.04388 6.62783 2.12199Z" fill="#6C41FF"/>
</g>
</svg>
